HIERARCHY
ROOT root
{
	OFFSET 0.00 0.00 0.00
	CHANNELS 6 Xposition Yposition Zposition Zrotation Xrotation Yrotation
	JOINT lowerback
	{
		OFFSET 0 0 0
		CHANNELS 6 Xposition Yposition Zposition Zrotation Xrotation Yrotation
		JOINT upperback
		{
			OFFSET -0.214371 12.3768 -1.12219
			CHANNELS 6 Xposition Yposition Zposition Zrotation Xrotation Yrotation
			JOINT thorax
			{
				OFFSET -0.00137213 12.3873 0.296195
				CHANNELS 6 Xposition Yposition Zposition Zrotation Xrotation Yrotation
				JOINT lowerneck
				{
					OFFSET 0.0883157 12.5016 0.82912
					CHANNELS 6 Xposition Yposition Zposition Zrotation Xrotation Yrotation
					JOINT upperneck
					{
						OFFSET -1 10.1794 0.943522
						CHANNELS 6 Xposition Yposition Zposition Zrotation Xrotation Yrotation
						JOINT head
						{
							OFFSET 0.667525 10.2797 -1.57149
							CHANNELS 6 Xposition Yposition Zposition Zrotation Xrotation Yrotation
							End Site
							{
								OFFSET 0 0 0
							}
						}
					}
				}
				JOINT lclavicle
				{
					OFFSET 0.0883157 12.5016 0.82912
					CHANNELS 6 Xposition Yposition Zposition Zrotation Xrotation Yrotation
					JOINT lhumerus
					{
						OFFSET 20.61 4.45006 1.43784
						CHANNELS 6 Xposition Yposition Zposition Zrotation Xrotation Yrotation
						JOINT lradius
						{
							OFFSET 0 -30.3438 0
							CHANNELS 6 Xposition Yposition Zposition Zrotation Xrotation Yrotation
							JOINT lwrist
							{
								OFFSET 0 -18.964 0
								CHANNELS 6 Xposition Yposition Zposition Zrotation Xrotation Yrotation
								JOINT lhand
								{
									OFFSET 0 -9.48199 0
									CHANNELS 6 Xposition Yposition Zposition Zrotation Xrotation Yrotation
									JOINT lfingers
									{
										OFFSET 0 -3.17138 0
										CHANNELS 6 Xposition Yposition Zposition Zrotation Xrotation Yrotation
										End Site
										{
											OFFSET 0 -2.55685 0
										}
									}
								}
								JOINT lthumb
								{
									OFFSET 0 -9.48199 0
									CHANNELS 6 Xposition Yposition Zposition Zrotation Xrotation Yrotation
									End Site
									{
										OFFSET 0 -3.67114 0
									}
								}
							}
						}
					}
				}
				JOINT rclavicle
				{
					OFFSET 0.0883157 12.5016 0.82912
					CHANNELS 6 Xposition Yposition Zposition Zrotation Xrotation Yrotation
					JOINT rhumerus
					{
						OFFSET -20.61 4.45 1.44
						CHANNELS 6 Xposition Yposition Zposition Zrotation Xrotation Yrotation
						JOINT rradius
						{
							OFFSET 0 -29.5102 0
							CHANNELS 6 Xposition Yposition Zposition Zrotation Xrotation Yrotation
							JOINT rwrist
							{
								OFFSET 0 -19.2342 0
								CHANNELS 6 Xposition Yposition Zposition Zrotation Xrotation Yrotation
								JOINT rhand
								{
									OFFSET 0 -9.61712 0
									CHANNELS 6 Xposition Yposition Zposition Zrotation Xrotation Yrotation
									JOINT rfingers
									{
										OFFSET 0 -3.29215 0
										CHANNELS 6 Xposition Yposition Zposition Zrotation Xrotation Yrotation
										End Site
										{
											OFFSET 0 -2.557 0
										}
									}
								}
								JOINT rthumb
								{
									OFFSET 0 -9.61712 0
									CHANNELS 6 Xposition Yposition Zposition Zrotation Xrotation Yrotation
									End Site
									{
										OFFSET 0 -3.671 0
									}
								}
							}
						}
					}
				}
			}
		}
	}
	JOINT rfemur
	{
		OFFSET -8.46272 -9.62775 4.76248
		CHANNELS 6 Xposition Yposition Zposition Zrotation Xrotation Yrotation
		JOINT rtibia
		{
			OFFSET 1.00552e-005 -38.0331 0
			CHANNELS 6 Xposition Yposition Zposition Zrotation Xrotation Yrotation
			JOINT rfoot
			{
				OFFSET 1.14428e-005 -43.2815 0
				CHANNELS 6 Xposition Yposition Zposition Zrotation Xrotation Yrotation
				JOINT rtoes
				{
					OFFSET 0 -14.1868 -3.08763
					CHANNELS 6 Xposition Yposition Zposition Zrotation Xrotation Yrotation
					End Site
					{
						OFFSET 0 -7.27332 0
					}
				}
			}
		}
	}
	JOINT lfemur
	{
		OFFSET 9.10607 -9.62778 4.76249
		CHANNELS 6 Xposition Yposition Zposition Zrotation Xrotation Yrotation
		JOINT ltibia
		{
			OFFSET -1.01399e-005 -38.3535 0
			CHANNELS 6 Xposition Yposition Zposition Zrotation Xrotation Yrotation
			JOINT lfoot
			{
				OFFSET -1.12937e-005 -42.7176 0
				CHANNELS 6 Xposition Yposition Zposition Zrotation Xrotation Yrotation
				JOINT ltoes
				{
					OFFSET 0 -13.9965 -2.83857
					CHANNELS 6 Xposition Yposition Zposition Zrotation Xrotation Yrotation
					End Site
					{
						OFFSET 0 -7.16348 0
					}
				}
			}
		}
	}
}
MOTION
Frames: 6
Frame Time: 0.00833333
-0.339993	90.3854	9.41819	-2.91402	13.0283	8.17515	0 0 0 4.45907	29.6208	0.817849	-0.214371 12.3768 -1.12219 1.29942	14.5291	-0.520463	-0.00137213 12.3873 0.296195 -1.3509	0.19898	-1.08269	0.0883157 12.5016 0.82912 0.983953	6.75766	-1.46436	-1 10.1794 0.943522 4.16689	-20.4189	-1.66637	0.667525 10.2797 -1.57149 1.38325	-7.33481	-1.55005	0.0883157 12.5016 0.82912 -15	0	-0	20.61 4.45006 1.43784 21.7656	-5.67858	178.145	0 -30.3438 0 -0	56.7079	-0	0 -18.964 0 1.39737e-014	-9.13861e-016	-97.4835	0 -9.48199 0 1.22245	4.37968	-2.58917e-014	0 -3.17138 0 -0	7.12502	-0	0 -9.48199 0 25	15	-1.36605e-015	0.0883157 12.5016 0.82912 15	0	-0	-20.61 4.45 1.44 -18.4377	-5.74184	-178.8	0 -29.5102 0 -0	53.7278	-0	0 -19.2342 0 5.6408e-016	-2.75641e-015	113.131	0 -9.61712 0 1.22	4.38	-0	0 -3.29215 0 -0	7.12502	-0	0 -9.61712 0 25	15	-7.97034e-015	-8.46272 -9.62775 4.76248 -1.40878	-43.2286	-11.6424	1.00552e-005 -38.0331 0 -0	61.9626	-0	1.14428e-005 -43.2815 0 -100.799	-77.5187	-100.55	0 -14.1868 -3.08763 -0	-18.501	-0	9.10607 -9.62778 4.76249 10.7307	-49.4749	16.9812	-1.01399e-005 -38.3535 0 -0	54.7565	-0	-1.12937e-005 -42.7176 0 15.181	-79.5255	15.4261	0 -13.9965 -2.83857 -0	-39.4007	-0
-0.271325	90.2567	9.76826	-2.84496	12.9013	7.87689	0 0 0 4.22714	29.5928	0.956235	-0.214371 12.3768 -1.12219 1.17526	14.5625	-0.421876	-0.00137213 12.3873 0.296195 -1.39412	0.249346	-1.0423	0.0883157 12.5016 0.82912 0.974416	6.77381	-1.46545	-1 10.1794 0.943522 4.15919	-20.5292	-1.67474	0.667525 10.2797 -1.57149 1.38507	-7.37357	-1.5581	0.0883157 12.5016 0.82912 -15	0	-0	20.61 4.45006 1.43784 21.781	-5.59977	178.218	0 -30.3438 0 -0	56.4526	-0	0 -18.964 0 1.39726e-014	-9.21789e-016	-97.5488	0 -9.48199 0 1.22245	4.37968	-2.58917e-014	0 -3.17138 0 -0	7.12502	-0	0 -9.48199 0 25	15	-1.36605e-015	0.0883157 12.5016 0.82912 15	0	-0	-20.61 4.45 1.44 -18.4729	-5.69998	-178.658	0 -29.5102 0 -0	53.9322	-0	0 -19.2342 0 5.57986e-016	-2.7421e-015	113.004	0 -9.61712 0 1.22	4.38	-0	0 -3.29215 0 -0	7.12502	-0	0 -9.61712 0 25	15	-7.97034e-015	-8.46272 -9.62775 4.76248 -1.38767	-42.9685	-11.6224	1.00552e-005 -38.0331 0 -0	62.2188	-0	1.14428e-005 -43.2815 0 -101.864	-77.5754	-101.594	0 -14.1868 -3.08763 -0	-18.8822	-0	9.10607 -9.62778 4.76249 10.674	-49.256	16.8869	-1.01399e-005 -38.3535 0 -0	54.5844	-0	-1.12937e-005 -42.7176 0 14.8354	-79.2413	15.0888	0 -13.9965 -2.83857 -0	-38.068	-0
-0.192196	90.1224	10.1309	-2.77121	12.7522	7.58169	0 0 0 4.00582	29.558	1.07812	-0.214371 12.3768 -1.12219 1.04734	14.5827	-0.337886	-0.00137213 12.3873 0.296195 -1.44261	0.286722	-1.00775	0.0883157 12.5016 0.82912 0.968932	6.78154	-1.46111	-1 10.1794 0.943522 4.15385	-20.6432	-1.676	0.667525 10.2797 -1.57149 1.3834	-7.41223	-1.56367	0.0883157 12.5016 0.82912 -15	0	-0	20.61 4.45006 1.43784 21.7979	-5.51886	178.29	0 -30.3438 0 -0	56.1653	-0	0 -18.964 0 1.39714e-014	-9.30602e-016	-97.6214	0 -9.48199 0 1.22245	4.37968	-2.58917e-014	0 -3.17138 0 -0	7.12502	-0	0 -9.48199 0 25	15	-1.36605e-015	0.0883157 12.5016 0.82912 15	0	-0	-20.61 4.45 1.44 -18.4964	-5.64225	-178.52	0 -29.5102 0 -0	54.0853	-0	0 -19.2342 0 5.52257e-016	-2.72856e-015	112.884	0 -9.61712 0 1.22	4.38	-0	0 -3.29215 0 -0	7.12502	-0	0 -9.61712 0 25	15	-7.97034e-015	-8.46272 -9.62775 4.76248 -1.36998	-42.6908	-11.5922	1.00552e-005 -38.0331 0 -0	62.4962	-0	1.14428e-005 -43.2815 0 -102.979	-77.6237	-102.688	0 -14.1868 -3.08763 -0	-19.3304	-0	9.10607 -9.62778 4.76249 10.6324	-48.983	16.7958	-1.01399e-005 -38.3535 0 -0	54.6089	-0	-1.12937e-005 -42.7176 0 14.7588	-78.9832	15.0235	0 -13.9965 -2.83857 -0	-36.608	-0
-0.10584	90.0021	10.5021	-2.69262	12.5884	7.29861	0 0 0 3.79855	29.519	1.18022	-0.214371 12.3768 -1.12219 0.917298	14.5875	-0.270896	-0.00137213 12.3873 0.296195 -1.49565	0.307369	-0.979949	0.0883157 12.5016 0.82912 0.967472	6.77997	-1.45165	-1 10.1794 0.943522 4.15163	-20.7555	-1.67019	0.667525 10.2797 -1.57149 1.38227	-7.44883	-1.56477	0.0883157 12.5016 0.82912 -15	0	-0	20.61 4.45006 1.43784 21.8186	-5.44537	178.362	0 -30.3438 0 -0	55.8459	-0	0 -18.964 0 1.39702e-014	-9.4007e-016	-97.6994	0 -9.48199 0 1.22245	4.37968	-2.58917e-014	0 -3.17138 0 -0	7.12502	-0	0 -9.48199 0 25	15	-1.36605e-015	0.0883157 12.5016 0.82912 15	0	-0	-20.61 4.45 1.44 -18.5085	-5.57399	-178.386	0 -29.5102 0 -0	54.1835	-0	0 -19.2342 0 5.4703e-016	-2.71615e-015	112.774	0 -9.61712 0 1.22	4.38	-0	0 -3.29215 0 -0	7.12502	-0	0 -9.61712 0 25	15	-7.97034e-015	-8.46272 -9.62775 4.76248 -1.3647	-42.408	-11.56	1.00552e-005 -38.0331 0 -0	62.8011	-0	1.14428e-005 -43.2815 0 -104.087	-77.6664	-103.775	0 -14.1868 -3.08763 -0	-19.8622	-0	9.10607 -9.62778 4.76249 10.6033	-48.6722	16.7192	-1.01399e-005 -38.3535 0 -0	54.7976	-0	-1.12937e-005 -42.7176 0 14.9332	-78.7654	15.2115	0 -13.9965 -2.83857 -0	-35.0938	-0
-0.01983	89.909	10.8738	-2.61061	12.4175	7.03578	0 0 0 3.60918	29.4786	1.26007	-0.214371 12.3768 -1.12219 0.787179	14.5754	-0.222379	-0.00137213 12.3873 0.296195 -1.55258	0.308495	-0.959407	0.0883157 12.5016 0.82912 0.966728	6.76863	-1.43755	-1 10.1794 0.943522 4.15269	-20.8605	-1.65762	0.667525 10.2797 -1.57149 1.38127	-7.48146	-1.56497	0.0883157 12.5016 0.82912 -15	0	-0	20.61 4.45006 1.43784 21.8453	-5.38929	178.431	0 -30.3438 0 -0	55.4977	-0	0 -18.964 0 1.39688e-014	-9.49886e-016	-97.7803	0 -9.48199 0 1.22245	4.37968	-2.58917e-014	0 -3.17138 0 -0	7.12502	-0	0 -9.48199 0 25	15	-1.36605e-015	0.0883157 12.5016 0.82912 15	0	-0	-20.61 4.45 1.44 -18.5104	-5.50128	-178.262	0 -29.5102 0 -0	54.2252	-0	0 -19.2342 0 5.42441e-016	-2.70519e-015	112.677	0 -9.61712 0 1.22	4.38	-0	0 -3.29215 0 -0	7.12502	-0	0 -9.61712 0 25	15	-7.97034e-015	-8.46272 -9.62775 4.76248 -1.37933	-42.1355	-11.5351	1.00552e-005 -38.0331 0 -0	63.1413	-0	1.14428e-005 -43.2815 0 -105.103	-77.7083	-104.773	0 -14.1868 -3.08763 -0	-20.4886	-0	9.10607 -9.62778 4.76249 10.5844	-48.3394	16.6652	-1.01399e-005 -38.3535 0 -0	55.111	-0	-1.12937e-005 -42.7176 0 15.3276	-78.598	15.6212	0 -13.9965 -2.83857 -0	-33.6014	-0
0.0660718	89.8418	11.244	-2.52823	12.2473	6.79991	0 0 0 3.44197	29.4386	1.31615	-0.214371 12.3768 -1.12219 0.659405	14.5458	-0.192776	-0.00137213 12.3873 0.296195 -1.6128	0.288558	-0.946163	0.0883157 12.5016 0.82912 0.967946	6.74756	-1.4194	-1 10.1794 0.943522 4.15685	-20.9533	-1.63884	0.667525 10.2797 -1.57149 1.38046	-7.50846	-1.56422	0.0883157 12.5016 0.82912 -15	0	-0	20.61 4.45006 1.43784 21.8802	-5.36024	178.496	0 -30.3438 0 -0	55.1273	-0	0 -18.964 0 1.39675e-014	-9.59701e-016	-97.8612	0 -9.48199 0 1.22245	4.37968	-2.58917e-014	0 -3.17138 0 -0	7.12502	-0	0 -9.48199 0 25	15	-1.36605e-015	0.0883157 12.5016 0.82912 15	0	-0	-20.61 4.45 1.44 -18.5046	-5.43056	-178.148	0 -29.5102 0 -0	54.2119	-0	0 -19.2342 0 5.38529e-016	-2.69581e-015	112.594	0 -9.61712 0 1.22	4.38	-0	0 -3.29215 0 -0	7.12502	-0	0 -9.61712 0 25	15	-7.97034e-015	-8.46272 -9.62775 4.76248 -1.4194	-41.8901	-11.5266	1.00552e-005 -38.0331 0 -0	63.5262	-0	1.14428e-005 -43.2815 0 -105.928	-77.7559	-105.584	0 -14.1868 -3.08763 -0	-21.212	-0	9.10607 -9.62778 4.76249 10.5744	-47.9997	16.6393	-1.01399e-005 -38.3535 0 -0	55.5077	-0	-1.12937e-005 -42.7176 0 15.9038	-78.487	16.2133	0 -13.9965 -2.83857 -0	-32.2028	-0
